<svg width="14" height="24" viewBox="0 0 14 24" fill="none" xmlns="http://www.w3.org/2000/svg">
<g clip-path="url(#clip0_40_45)">
<path d="M5.5 2V22" stroke="currentColor" stroke-width="2" stroke-linecap="round" stroke-linejoin="round"/>
<path d="M8.5 2V22" stroke="currentColor" stroke-width="2" stroke-linecap="round" stroke-linejoin="round"/>
<path d="M13 9C13 7.67392 12.4732 6.40215 11.5355 5.46447C10.5979 4.52678 9.32608 4 8 4H6C4.67392 4 3.40215 4.52678 2.46447 5.46447C1.52678 6.40215 1 7.67392 1 9V15C1 16.3261 1.52678 17.5979 2.46447 18.5355C3.40215 19.4732 4.67392 20 6 20H8C9.32608 20 10.5979 19.4732 11.5355 18.5355C12.4732 17.5979 13 16.3261 13 15" stroke="currentColor" stroke-width="2" stroke-linecap="round" stroke-linejoin="round"/>
</g>
<defs>
<clipPath id="clip0_40_45">
<rect width="14" height="24" fill="white"/>
</clipPath>
</defs>
</svg>
